<?xml version="1.0" encoding="UTF-8" standalone="no"?>
<!DOCTYPE svg PUBLIC "-//W3C//DTD SVG 1.1//EN" "http://www.w3.org/Graphics/SVG/1.1/DTD/svg11.dtd">
<svg xmlns="http://www.w3.org/2000/svg" version="1.1" viewBox="0 0 475 475">
<g stroke-width="2.00" fill="none" stroke-linecap="butt">
<path stroke="#808080" vector-effect="non-scaling-stroke" d="
  M 385.80 231.56
  A 0.29 0.28 45.2 0 1 385.80 231.03
  L 400.50 225.41
  A 1.90 1.89 -17.4 0 0 401.66 223.20
  C 399.98 216.33 397.22 209.76 388.93 209.67
  A 0.35 0.35 0.0 0 0 388.60 210.14
  C 392.28 220.22 384.84 227.68 375.02 227.40
  C 366.65 227.15 363.10 220.52 368.27 213.56
  Q 372.90 207.31 377.72 201.22
  C 380.09 198.22 376.18 197.40 374.42 196.51
  A 1.55 1.55 0.0 0 1 373.69 194.51
  C 378.04 184.29 385.88 181.95 395.40 178.84
  A 1.16 1.16 0.0 0 0 396.00 177.07
  Q 391.32 170.34 384.48 165.79
  C 379.67 162.59 374.73 162.19 369.77 158.23
  Q 358.46 149.21 346.82 140.64
  C 337.16 133.53 332.62 124.27 326.11 114.67
  C 323.39 110.65 313.82 99.99 308.47 101.04
  C 300.75 102.55 297.38 124.30 295.92 131.07
  C 293.81 140.84 290.05 149.71 284.19 156.69
  C 274.53 168.20 263.72 179.72 255.79 192.48
  A 0.36 0.36 0.0 0 0 256.17 193.03
  C 269.53 190.41 284.10 185.97 296.00 183.25
  Q 308.75 180.33 322.92 182.30
  C 329.24 183.18 333.85 190.31 329.19 195.77
  C 326.58 198.84 322.10 200.89 318.08 199.21
  C 309.55 195.66 295.31 192.17 286.42 195.66
  C 281.54 197.58 278.86 198.81 272.50 199.02
  Q 269.24 199.12 263.31 202.58
  C 254.32 207.82 248.89 212.19 238.00 210.05
  C 231.39 208.75 226.30 213.52 223.12 218.87
  Q 215.12 232.32 216.79 248.05
  C 217.58 255.51 226.79 260.94 229.48 269.32
  C 237.74 295.01 228.60 316.16 218.87 339.15
  C 217.05 343.43 216.91 346.46 219.31 350.22
  C 224.53 358.43 232.57 365.06 238.71 373.28
  Q 240.05 375.09 241.96 376.05
  C 273.40 391.94 347.30 429.29 375.96 395.28
  Q 379.61 390.95 385.83 377.95
  C 408.15 331.34 426.69 276.34 409.77 225.40
  A 0.64 0.64 0.0 0 0 408.64 225.23
  Q 400.08 237.23 385.80 231.56"
/>
<path stroke="#808080" vector-effect="non-scaling-stroke" d="
  M 411.12 198.68
  C 409.34 189.39 395.20 193.14 390.05 196.61
  Q 387.74 198.17 390.51 198.41
  L 409.84 200.10
  A 1.20 1.20 0.0 0 0 411.12 198.68"
/>
<path stroke="#808080" vector-effect="non-scaling-stroke" d="
  M 317.41 219.53
  A 0.51 0.51 0.0 0 1 317.96 218.69
  Q 321.42 220.09 325.12 219.66
  A 0.51 0.51 0.0 0 0 325.57 219.05
  C 322.37 201.68 305.61 202.05 292.02 202.87
  C 287.70 203.13 267.11 205.96 265.22 209.69
  Q 262.44 215.18 259.21 219.18
  Q 257.60 221.18 257.35 222.66
  Q 256.96 224.97 259.30 224.95
  L 266.67 224.86
  A 1.05 1.04 -84.9 0 1 267.71 226.11
  C 267.41 227.59 267.93 228.87 269.52 229.24
  C 273.23 230.08 274.56 227.07 276.23 224.56
  A 0.47 0.46 34.0 0 1 276.89 224.44
  L 281.96 228.02
  A 0.71 0.70 31.3 0 1 282.19 228.93
  L 279.48 234.15
  A 0.62 0.62 0.0 0 0 280.23 235.02
  Q 284.20 233.70 283.36 229.44
  A 0.58 0.58 0.0 0 1 283.83 228.75
  Q 285.98 228.40 288.20 228.44
  C 296.46 228.57 300.77 221.83 300.18 213.91
  A 0.87 0.87 0.0 0 1 300.99 212.97
  C 308.65 212.51 311.09 224.93 319.51 222.94
  A 0.59 0.58 -28.8 0 0 319.80 221.96
  L 317.41 219.53"
/>
<path stroke="#808080" vector-effect="non-scaling-stroke" d="
  M 294.05 234.90
  A 0.41 0.40 4.1 0 0 294.50 235.41
  L 298.51 234.85
  A 0.56 0.56 0.0 0 0 298.90 233.99
  C 297.45 231.75 294.86 232.18 294.05 234.90"
/>
<path stroke="#808080" vector-effect="non-scaling-stroke" d="
  M 289.3049 235.8761
  A 1.77 1.30 127.4 0 0 291.4127 235.2596
  A 1.77 1.30 127.4 0 0 291.4551 233.0639
  A 1.77 1.30 127.4 0 0 289.3473 233.6804
  A 1.77 1.30 127.4 0 0 289.3049 235.8761"
/>
<path stroke="#808080" vector-effect="non-scaling-stroke" d="
  M 369.40 293.42
  C 377.31 295.37 385.10 288.62 386.55 281.36
  A 1.52 1.52 0.0 0 0 384.90 279.55
  Q 374.16 280.67 367.97 289.24
  C 366.49 291.30 366.91 292.80 369.40 293.42"
/>
<path stroke="#808080" vector-effect="non-scaling-stroke" d="
  M 348.85 290.82
  Q 360.80 289.78 369.95 282.17
  A 0.52 0.52 0.0 0 0 369.83 281.29
  C 361.66 277.70 351.83 281.87 348.19 289.89
  A 0.66 0.66 0.0 0 0 348.85 290.82"
/>
<path stroke="#808080" vector-effect="non-scaling-stroke" d="
  M 318.58 337.94
  Q 322.65 339.60 327.02 338.74
  Q 327.51 338.64 327.89 338.34
  Q 334.74 333.02 342.24 333.19
  Q 353.68 333.46 365.13 333.51
  C 370.27 333.54 375.35 332.71 380.52 332.17
  A 1.34 1.34 0.0 0 1 381.43 332.41
  Q 386.38 335.94 391.27 332.26
  C 396.52 328.32 389.11 321.71 385.27 321.14
  Q 382.84 320.79 375.80 322.26
  Q 358.06 325.98 345.69 326.92
  C 338.64 327.46 322.07 330.46 318.38 337.39
  A 0.39 0.39 0.0 0 0 318.58 337.94"
/>
<path stroke="#808080" vector-effect="non-scaling-stroke" d="
  M 347.39 359.81
  C 358.43 360.56 379.72 361.05 382.89 346.27
  A 0.37 0.37 0.0 0 0 382.49 345.83
  Q 372.80 346.84 363.15 347.97
  C 354.80 348.94 349.65 351.16 346.85 358.98
  A 0.62 0.62 0.0 0 0 347.39 359.81"
/>
</g>
<path fill="#000000" d="
  M 173.52 448.48
  C 173.27 449.11 166.32 452.45 165.25 453.00
  C 161.49 454.93 156.69 454.80 152.49 455.81
  A 1.57 1.54 49.3 0 1 151.55 455.73
  C 147.97 454.27 143.89 454.62 141.06 453.90
  C 136.37 452.70 133.93 451.39 128.03 452.20
  A 1.64 1.64 0.0 0 0 127.17 452.60
  C 124.23 455.25 121.37 454.17 118.28 455.07
  Q 108.38 457.94 99.40 462.84
  Q 91.04 467.39 89.21 467.87
  Q 83.33 469.39 77.01 467.25
  C 71.49 465.39 64.44 463.89 59.72 462.11
  C 43.82 456.11 34.81 445.01 27.89 429.89
  C 25.95 425.63 25.21 421.24 24.20 416.66
  C 22.55 409.18 24.52 404.84 25.05 397.85
  Q 25.93 386.08 28.08 374.49
  Q 29.01 369.46 29.00 364.91
  C 28.94 342.88 26.82 319.18 34.13 298.05
  C 35.69 293.54 36.43 288.51 37.95 284.41
  C 39.45 280.40 45.95 267.60 44.67 264.19
  A 1.47 1.44 -48.0 0 1 44.63 263.25
  Q 46.46 256.63 46.67 251.68
  Q 47.35 235.69 47.82 219.68
  Q 47.98 214.04 47.27 208.45
  C 46.91 205.62 47.75 204.06 48.94 201.70
  A 1.66 1.65 -35.0 0 0 49.11 200.75
  Q 48.13 192.82 49.08 184.92
  C 49.33 182.86 50.54 180.75 50.45 178.35
  C 50.20 171.14 56.52 166.21 58.35 159.25
  Q 60.63 150.56 63.32 142.02
  A 1.49 1.45 -9.2 0 1 63.89 141.25
  C 67.77 138.61 68.49 135.72 70.67 132.95
  Q 75.12 127.33 76.30 122.76
  C 77.97 116.30 79.31 111.49 84.30 107.83
  C 88.81 104.53 91.72 102.37 92.95 97.27
  Q 94.30 91.65 95.73 86.08
  C 97.63 78.62 103.03 72.65 108.22 66.47
  C 110.60 63.63 113.60 61.58 115.43 59.86
  Q 124.11 51.72 138.99 40.76
  C 144.61 36.61 149.05 34.47 154.88 31.19
  C 158.95 28.90 164.10 27.68 168.07 24.64
  Q 171.09 22.32 173.17 21.30
  Q 194.25 11.07 216.73 4.54
  C 221.10 3.27 226.25 2.85 231.02 1.66
  A 1.12 1.12 0.0 0 1 231.90 1.80
  Q 232.97 2.49 235.03 2.74
  Q 242.93 3.72 251.46 7.68
  A 1.14 1.13 45.3 0 0 252.36 7.69
  Q 252.97 7.44 253.68 7.37
  Q 262.36 6.50 271.05 5.82
  C 283.24 4.86 293.22 6.32 304.28 9.95
  C 306.54 10.69 308.61 12.63 310.93 13.56
  Q 320.67 17.47 330.71 20.48
  C 334.57 21.64 335.58 24.23 338.87 25.39
  Q 361.05 33.25 379.96 47.29
  C 387.47 52.85 398.09 65.74 405.92 74.85
  C 424.36 96.28 439.34 124.08 442.79 152.49
  C 443.05 154.59 442.02 156.75 442.58 159.49
  C 443.75 165.17 442.55 170.27 443.34 175.78
  C 444.60 184.67 444.40 191.77 443.05 201.67
  C 441.65 211.99 440.73 221.98 441.40 232.45
  Q 442.21 245.10 444.28 260.50
  C 444.86 264.81 445.33 272.59 442.87 276.81
  C 439.51 282.56 434.21 289.59 432.99 296.27
  Q 430.93 307.46 428.81 318.64
  C 427.68 324.61 428.03 330.26 427.98 336.31
  C 427.95 340.17 430.93 344.69 432.44 348.25
  C 435.16 354.65 441.04 361.00 441.82 367.90
  Q 442.81 376.58 446.37 384.52
  C 447.96 388.06 447.38 391.87 448.44 395.68
  A 1.76 1.74 46.6 0 1 448.42 396.65
  Q 446.42 402.81 445.83 409.27
  A 1.88 1.87 -22.4 0 1 445.42 410.25
  Q 435.60 421.86 429.66 431.63
  Q 428.57 433.42 428.12 436.75
  A 1.93 1.83 69.1 0 1 427.75 437.64
  Q 424.73 441.52 422.04 445.55
  C 419.72 449.04 416.28 449.36 413.56 450.92
  Q 407.91 454.18 402.21 457.34
  C 398.49 459.40 392.88 463.60 387.81 466.09
  C 383.11 468.40 377.29 468.53 372.07 469.77
  Q 367.64 470.81 363.82 470.91
  Q 347.14 471.32 339.75 471.29
  C 336.87 471.28 334.27 470.38 331.07 470.89
  Q 320.70 472.55 310.36 470.81
  C 302.36 469.47 292.98 463.44 294.56 454.00
  C 296.19 444.24 298.94 434.34 299.57 424.50
  C 300.01 417.61 285.54 410.84 279.82 408.92
  Q 270.77 405.89 254.00 398.27
  C 252.19 397.45 247.81 396.80 246.75 395.76
  C 241.73 390.82 235.42 385.41 228.43 383.71
  Q 221.72 382.07 215.22 379.86
  C 213.14 379.15 211.79 379.85 210.99 381.76
  C 208.94 386.64 206.45 391.36 205.71 396.75
  Q 205.08 401.43 203.35 405.34
  C 197.25 419.17 186.62 431.81 177.55 444.53
  Q 175.98 446.74 173.76 448.19
  A 0.57 0.55 85.8 0 0 173.52 448.48
  Z
  M 385.80 231.56
  A 0.29 0.28 45.2 0 1 385.80 231.03
  L 400.50 225.41
  A 1.90 1.89 -17.4 0 0 401.66 223.20
  C 399.98 216.33 397.22 209.76 388.93 209.67
  A 0.35 0.35 0.0 0 0 388.60 210.14
  C 392.28 220.22 384.84 227.68 375.02 227.40
  C 366.65 227.15 363.10 220.52 368.27 213.56
  Q 372.90 207.31 377.72 201.22
  C 380.09 198.22 376.18 197.40 374.42 196.51
  A 1.55 1.55 0.0 0 1 373.69 194.51
  C 378.04 184.29 385.88 181.95 395.40 178.84
  A 1.16 1.16 0.0 0 0 396.00 177.07
  Q 391.32 170.34 384.48 165.79
  C 379.67 162.59 374.73 162.19 369.77 158.23
  Q 358.46 149.21 346.82 140.64
  C 337.16 133.53 332.62 124.27 326.11 114.67
  C 323.39 110.65 313.82 99.99 308.47 101.04
  C 300.75 102.55 297.38 124.30 295.92 131.07
  C 293.81 140.84 290.05 149.71 284.19 156.69
  C 274.53 168.20 263.72 179.72 255.79 192.48
  A 0.36 0.36 0.0 0 0 256.17 193.03
  C 269.53 190.41 284.10 185.97 296.00 183.25
  Q 308.75 180.33 322.92 182.30
  C 329.24 183.18 333.85 190.31 329.19 195.77
  C 326.58 198.84 322.10 200.89 318.08 199.21
  C 309.55 195.66 295.31 192.17 286.42 195.66
  C 281.54 197.58 278.86 198.81 272.50 199.02
  Q 269.24 199.12 263.31 202.58
  C 254.32 207.82 248.89 212.19 238.00 210.05
  C 231.39 208.75 226.30 213.52 223.12 218.87
  Q 215.12 232.32 216.79 248.05
  C 217.58 255.51 226.79 260.94 229.48 269.32
  C 237.74 295.01 228.60 316.16 218.87 339.15
  C 217.05 343.43 216.91 346.46 219.31 350.22
  C 224.53 358.43 232.57 365.06 238.71 373.28
  Q 240.05 375.09 241.96 376.05
  C 273.40 391.94 347.30 429.29 375.96 395.28
  Q 379.61 390.95 385.83 377.95
  C 408.15 331.34 426.69 276.34 409.77 225.40
  A 0.64 0.64 0.0 0 0 408.64 225.23
  Q 400.08 237.23 385.80 231.56
  Z
  M 411.12 198.68
  C 409.34 189.39 395.20 193.14 390.05 196.61
  Q 387.74 198.17 390.51 198.41
  L 409.84 200.10
  A 1.20 1.20 0.0 0 0 411.12 198.68
  Z"
/>
<path fill="#ffffff" d="
  M 385.80 231.56
  Q 400.08 237.23 408.64 225.23
  A 0.64 0.64 0.0 0 1 409.77 225.40
  C 426.69 276.34 408.15 331.34 385.83 377.95
  Q 379.61 390.95 375.96 395.28
  C 347.30 429.29 273.40 391.94 241.96 376.05
  Q 240.05 375.09 238.71 373.28
  C 232.57 365.06 224.53 358.43 219.31 350.22
  C 216.91 346.46 217.05 343.43 218.87 339.15
  C 228.60 316.16 237.74 295.01 229.48 269.32
  C 226.79 260.94 217.58 255.51 216.79 248.05
  Q 215.12 232.32 223.12 218.87
  C 226.30 213.52 231.39 208.75 238.00 210.05
  C 248.89 212.19 254.32 207.82 263.31 202.58
  Q 269.24 199.12 272.50 199.02
  C 278.86 198.81 281.54 197.58 286.42 195.66
  C 295.31 192.17 309.55 195.66 318.08 199.21
  C 322.10 200.89 326.58 198.84 329.19 195.77
  C 333.85 190.31 329.24 183.18 322.92 182.30
  Q 308.75 180.33 296.00 183.25
  C 284.10 185.97 269.53 190.41 256.17 193.03
  A 0.36 0.36 0.0 0 1 255.79 192.48
  C 263.72 179.72 274.53 168.20 284.19 156.69
  C 290.05 149.71 293.81 140.84 295.92 131.07
  C 297.38 124.30 300.75 102.55 308.47 101.04
  C 313.82 99.99 323.39 110.65 326.11 114.67
  C 332.62 124.27 337.16 133.53 346.82 140.64
  Q 358.46 149.21 369.77 158.23
  C 374.73 162.19 379.67 162.59 384.48 165.79
  Q 391.32 170.34 396.00 177.07
  A 1.16 1.16 0.0 0 1 395.40 178.84
  C 385.88 181.95 378.04 184.29 373.69 194.51
  A 1.55 1.55 0.0 0 0 374.42 196.51
  C 376.18 197.40 380.09 198.22 377.72 201.22
  Q 372.90 207.31 368.27 213.56
  C 363.10 220.52 366.65 227.15 375.02 227.40
  C 384.84 227.68 392.28 220.22 388.60 210.14
  A 0.35 0.35 0.0 0 1 388.93 209.67
  C 397.22 209.76 399.98 216.33 401.66 223.20
  A 1.90 1.89 -17.4 0 1 400.50 225.41
  L 385.80 231.03
  A 0.29 0.28 45.2 0 0 385.80 231.56
  Z
  M 317.41 219.53
  A 0.51 0.51 0.0 0 1 317.96 218.69
  Q 321.42 220.09 325.12 219.66
  A 0.51 0.51 0.0 0 0 325.57 219.05
  C 322.37 201.68 305.61 202.05 292.02 202.87
  C 287.70 203.13 267.11 205.96 265.22 209.69
  Q 262.44 215.18 259.21 219.18
  Q 257.60 221.18 257.35 222.66
  Q 256.96 224.97 259.30 224.95
  L 266.67 224.86
  A 1.05 1.04 -84.9 0 1 267.71 226.11
  C 267.41 227.59 267.93 228.87 269.52 229.24
  C 273.23 230.08 274.56 227.07 276.23 224.56
  A 0.47 0.46 34.0 0 1 276.89 224.44
  L 281.96 228.02
  A 0.71 0.70 31.3 0 1 282.19 228.93
  L 279.48 234.15
  A 0.62 0.62 0.0 0 0 280.23 235.02
  Q 284.20 233.70 283.36 229.44
  A 0.58 0.58 0.0 0 1 283.83 228.75
  Q 285.98 228.40 288.20 228.44
  C 296.46 228.57 300.77 221.83 300.18 213.91
  A 0.87 0.87 0.0 0 1 300.99 212.97
  C 308.65 212.51 311.09 224.93 319.51 222.94
  A 0.59 0.58 -28.8 0 0 319.80 221.96
  L 317.41 219.53
  Z
  M 294.05 234.90
  A 0.41 0.40 4.1 0 0 294.50 235.41
  L 298.51 234.85
  A 0.56 0.56 0.0 0 0 298.90 233.99
  C 297.45 231.75 294.86 232.18 294.05 234.90
  Z
  M 289.3049 235.8761
  A 1.77 1.30 127.4 0 0 291.4127 235.2596
  A 1.77 1.30 127.4 0 0 291.4551 233.0639
  A 1.77 1.30 127.4 0 0 289.3473 233.6804
  A 1.77 1.30 127.4 0 0 289.3049 235.8761
  Z
  M 369.40 293.42
  C 377.31 295.37 385.10 288.62 386.55 281.36
  A 1.52 1.52 0.0 0 0 384.90 279.55
  Q 374.16 280.67 367.97 289.24
  C 366.49 291.30 366.91 292.80 369.40 293.42
  Z
  M 348.85 290.82
  Q 360.80 289.78 369.95 282.17
  A 0.52 0.52 0.0 0 0 369.83 281.29
  C 361.66 277.70 351.83 281.87 348.19 289.89
  A 0.66 0.66 0.0 0 0 348.85 290.82
  Z
  M 318.58 337.94
  Q 322.65 339.60 327.02 338.74
  Q 327.51 338.64 327.89 338.34
  Q 334.74 333.02 342.24 333.19
  Q 353.68 333.46 365.13 333.51
  C 370.27 333.54 375.35 332.71 380.52 332.17
  A 1.34 1.34 0.0 0 1 381.43 332.41
  Q 386.38 335.94 391.27 332.26
  C 396.52 328.32 389.11 321.71 385.27 321.14
  Q 382.84 320.79 375.80 322.26
  Q 358.06 325.98 345.69 326.92
  C 338.64 327.46 322.07 330.46 318.38 337.39
  A 0.39 0.39 0.0 0 0 318.58 337.94
  Z
  M 347.39 359.81
  C 358.43 360.56 379.72 361.05 382.89 346.27
  A 0.37 0.37 0.0 0 0 382.49 345.83
  Q 372.80 346.84 363.15 347.97
  C 354.80 348.94 349.65 351.16 346.85 358.98
  A 0.62 0.62 0.0 0 0 347.39 359.81
  Z"
/>
<path fill="#ffffff" d="
  M 390.05 196.61
  C 395.20 193.14 409.34 189.39 411.12 198.68
  A 1.20 1.20 0.0 0 1 409.84 200.10
  L 390.51 198.41
  Q 387.74 198.17 390.05 196.61
  Z"
/>
<path fill="#000000" d="
  M 317.41 219.53
  L 319.80 221.96
  A 0.59 0.58 -28.8 0 1 319.51 222.94
  C 311.09 224.93 308.65 212.51 300.99 212.97
  A 0.87 0.87 0.0 0 0 300.18 213.91
  C 300.77 221.83 296.46 228.57 288.20 228.44
  Q 285.98 228.40 283.83 228.75
  A 0.58 0.58 0.0 0 0 283.36 229.44
  Q 284.20 233.70 280.23 235.02
  A 0.62 0.62 0.0 0 1 279.48 234.15
  L 282.19 228.93
  A 0.71 0.70 31.3 0 0 281.96 228.02
  L 276.89 224.44
  A 0.47 0.46 34.0 0 0 276.23 224.56
  C 274.56 227.07 273.23 230.08 269.52 229.24
  C 267.93 228.87 267.41 227.59 267.71 226.11
  A 1.05 1.04 -84.9 0 0 266.67 224.86
  L 259.30 224.95
  Q 256.96 224.97 257.35 222.66
  Q 257.60 221.18 259.21 219.18
  Q 262.44 215.18 265.22 209.69
  C 267.11 205.96 287.70 203.13 292.02 202.87
  C 305.61 202.05 322.37 201.68 325.57 219.05
  A 0.51 0.51 0.0 0 1 325.12 219.66
  Q 321.42 220.09 317.96 218.69
  A 0.51 0.51 0.0 0 0 317.41 219.53
  Z"
/>
<path fill="#000000" d="
  M 294.05 234.90
  C 294.86 232.18 297.45 231.75 298.90 233.99
  A 0.56 0.56 0.0 0 1 298.51 234.85
  L 294.50 235.41
  A 0.41 0.40 4.1 0 1 294.05 234.90
  Z"
/>
<ellipse fill="#000000" cx="0.00" cy="0.00" transform="translate(290.38,234.47) rotate(127.4)" rx="1.77" ry="1.30"/>
<path fill="#000000" d="
  M 369.40 293.42
  C 366.91 292.80 366.49 291.30 367.97 289.24
  Q 374.16 280.67 384.90 279.55
  A 1.52 1.52 0.0 0 1 386.55 281.36
  C 385.10 288.62 377.31 295.37 369.40 293.42
  Z"
/>
<path fill="#000000" d="
  M 348.85 290.82
  A 0.66 0.66 0.0 0 1 348.19 289.89
  C 351.83 281.87 361.66 277.70 369.83 281.29
  A 0.52 0.52 0.0 0 1 369.95 282.17
  Q 360.80 289.78 348.85 290.82
  Z"
/>
<path fill="#000000" d="
  M 318.58 337.94
  A 0.39 0.39 0.0 0 1 318.38 337.39
  C 322.07 330.46 338.64 327.46 345.69 326.92
  Q 358.06 325.98 375.80 322.26
  Q 382.84 320.79 385.27 321.14
  C 389.11 321.71 396.52 328.32 391.27 332.26
  Q 386.38 335.94 381.43 332.41
  A 1.34 1.34 0.0 0 0 380.52 332.17
  C 375.35 332.71 370.27 333.54 365.13 333.51
  Q 353.68 333.46 342.24 333.19
  Q 334.74 333.02 327.89 338.34
  Q 327.51 338.64 327.02 338.74
  Q 322.65 339.60 318.58 337.94
  Z"
/>
<path fill="#000000" d="
  M 347.39 359.81
  A 0.62 0.62 0.0 0 1 346.85 358.98
  C 349.65 351.16 354.80 348.94 363.15 347.97
  Q 372.80 346.84 382.49 345.83
  A 0.37 0.37 0.0 0 1 382.89 346.27
  C 379.72 361.05 358.43 360.56 347.39 359.81
  Z"
/>
</svg>
